<svg width="96" height="34" viewBox="0 0 96 34" fill="none" xmlns="http://www.w3.org/2000/svg">
<g clip-path="url(#clip0_33_2)">
<path d="M49.9111 4.75V5L49.9033 23.4326L49.8994 23.835C49.8629 25.6943 49.5704 27.2849 49.0186 28.5664L48.8965 28.8359C48.2537 30.1868 47.2695 31.2206 45.9736 31.9102L45.71 32.0439C44.3086 32.7177 42.4808 33.0508 40.2871 33.0508C39.2638 33.0508 38.3315 32.98 37.5098 32.8379L37.1641 32.7725L36.9492 32.7275L36.75 32.6865V28.4463L37.0381 28.4912L37.3477 28.5381L37.9473 28.6191C38.5389 28.6883 39.1058 28.7236 39.6387 28.7236C41.0221 28.7236 42.1189 28.522 42.9102 28.1436L43.1895 27.9961C43.814 27.6313 44.2646 27.1144 44.5693 26.416C44.9268 25.5936 45.1181 24.4398 45.1182 22.9736L45.1143 9.10938L45.1279 8.71875C45.1877 7.83482 45.4508 7.13831 45.8311 6.59277C46.2642 5.97147 46.8387 5.56089 47.4043 5.29004C47.9692 5.01951 48.5309 4.88544 48.9492 4.81836C49.159 4.78472 49.3342 4.76738 49.458 4.75879C49.52 4.75449 49.5692 4.75211 49.6035 4.75098C49.6206 4.75041 49.6341 4.75016 49.6436 4.75H49.9111Z" fill="white" stroke="#008CFF" stroke-width="0.5"/>
<path d="M88.2681 8.49805V13.2021H96.1519L96.1509 13.4521H95.9009L96.1509 13.4531V13.4658C96.1508 13.4736 96.1504 13.4851 96.1499 13.499C96.149 13.5273 96.1476 13.5683 96.1441 13.6191C96.137 13.7206 96.1227 13.8638 96.0952 14.0352C96.0404 14.3771 95.9301 14.8377 95.7085 15.3008C95.4866 15.7645 95.1494 16.238 94.6382 16.5947C94.1248 16.9529 93.4503 17.1836 92.5737 17.1836H88.2681V25.2275C88.2681 26.5396 88.5938 27.5056 89.1958 28.1396L89.312 28.2539C89.8776 28.7815 90.684 29.0755 91.7466 29.1035H91.9126C92.9798 29.1035 94.0903 28.9431 95.2114 28.626L95.5552 28.5293L95.8726 28.4395V32.5508L95.6841 32.5977L95.48 32.6494C94.0176 33.0151 92.5348 33.2002 91.0737 33.2002C88.7017 33.2002 86.8235 32.578 85.5318 31.3125V31.3135C84.2369 30.0481 83.5982 28.2307 83.5982 25.9531V17.1836H79.7007V13.2002H83.5982V8.49805H88.2681Z" fill="white" stroke="#008CFF" stroke-width="0.5"/>
<path d="M66.0039 12.5533C68.9927 12.5533 71.5722 13.1024 73.6592 14.1989H73.6602C75.6326 15.235 77.0955 16.6913 78.001 18.5299L78.1748 18.903V18.9049L78.2959 19.1959C78.8789 20.6579 79.1729 22.2495 79.1729 23.9293V24.1979H78.9268V24.4479H58.6182V24.1979H58.8682L58.6182 24.1969V24.1842C58.6183 24.1769 58.6187 24.1668 58.6191 24.1539C58.62 24.1278 58.6218 24.0903 58.625 24.0436C58.6315 23.9503 58.6447 23.8182 58.6699 23.6608C58.7202 23.3471 58.821 22.925 59.0244 22.4996C59.2283 22.0735 59.5379 21.6379 60.0088 21.3092C60.4819 20.979 61.103 20.7672 61.9082 20.7672L74.3076 20.7721C74.2345 20.5448 74.149 20.3132 74.0508 20.0787V20.0778C73.5587 18.9929 72.691 18.125 71.4541 17.5084L71.2012 17.3883C69.7919 16.7498 68.0724 16.4215 66.0078 16.4215C64.0713 16.4215 62.4309 16.7156 61.1191 17.2858L60.8613 17.4039C59.5366 18.0375 58.5896 18.981 58.0342 20.2076L58.0303 20.2164C57.9439 20.3879 57.8436 20.6732 57.7305 21.0846V21.0875C57.7299 21.0897 57.7287 21.0934 57.7275 21.0983C57.7252 21.1079 57.7222 21.1227 57.7178 21.1422C57.7089 21.1819 57.6955 21.2417 57.6807 21.319C57.651 21.4738 57.6137 21.7 57.582 21.9801C57.5187 22.5395 57.4799 23.3116 57.5771 24.1656L57.6133 24.3893C57.6924 24.8331 57.8154 25.2571 57.9824 25.6569L58.0703 25.8541L58.0713 25.8571L58.1748 26.0729C58.7209 27.1404 59.6581 27.9925 60.9863 28.6012H60.9873L61.2617 28.7223C62.6567 29.3063 64.3645 29.6061 66.3496 29.6061C67.8019 29.606 69.1421 29.4313 70.334 29.0905L70.7656 28.9567C71.7469 28.6279 72.559 28.1819 73.1914 27.6324L73.4082 27.4244C73.8928 26.9236 74.2288 26.3135 74.4062 25.6022V25.6012L74.457 25.3981L74.5049 25.2086H79.2217L79.1562 25.5114L79.0869 25.8375C78.7088 27.5946 77.8442 29.0918 76.5186 30.2819C75.3919 31.3092 73.9981 32.084 72.3799 32.5905L72.0527 32.6881C70.3134 33.1836 68.3566 33.4342 66.2344 33.4342C63.3629 33.4342 60.8523 32.9575 58.7695 32.0074L58.3594 31.8112C56.1771 30.7196 54.6101 29.1427 53.7207 27.1207V27.1198C53.1582 25.9113 52.8751 24.4997 52.875 23.0133C52.875 21.5213 53.1732 20.0855 53.7598 18.7506V18.7496L53.9346 18.3805C54.8452 16.5618 56.3304 15.1359 58.3408 14.1364L58.7432 13.9449C60.7828 13.0178 63.2019 12.5534 66.0039 12.5533Z" fill="white" stroke="#008CFF" stroke-width="0.5"/>
<path d="M31.3526 8.08969C31.3526 5.52777 29.4324 3.38091 28.8108 2.74798C28.1893 2.11346 26.0894 0 26.0894 0V22.8156C26.0894 25.3775 28.0096 27.5243 28.6312 28.1573C29.2527 28.7918 31.3526 30.9052 31.3526 30.9052V8.08969Z" fill="#008CFF"/>
<path d="M22.2343 11.2671C24.0449 9.45579 24.2054 6.57899 24.2134 5.69163C24.2213 4.80426 24.2325 1.8241 24.2325 1.8241L1.99818 24.0656C0.187577 25.8769 0.0270239 28.7537 0.0190757 29.641C0.0111275 30.5284 0 33.5086 0 33.5086L22.2343 11.2671Z" fill="#008CFF"/>
<path d="M22.2343 11.2671C24.0449 9.45579 24.2054 6.57899 24.2134 5.69163C24.2213 4.80426 24.2325 1.8241 24.2325 1.8241L1.99818 24.0656C0.187577 25.8769 0.0270239 28.7537 0.0190757 29.641C0.0111275 30.5284 0 33.5086 0 33.5086L22.2343 11.2671Z" fill="#008CFF"/>
<path d="M21.9161 31.5398C23.7267 33.3511 26.6024 33.5117 27.4894 33.5197C28.3764 33.5276 31.3554 33.5387 31.3554 33.5387L22.6267 24.8066C20.8161 22.9953 17.9405 22.8347 17.0534 22.8267C16.1664 22.8188 13.1874 22.8076 13.1874 22.8076L21.9161 31.5398Z" fill="#008CFF"/>
</g>
<defs>
<clipPath id="clip0_33_2">
<rect width="96" height="34" fill="white"/>
</clipPath>
</defs>
</svg>
