<svg width="50" height="50" viewBox="0 0 50 50" fill="none" xmlns="http://www.w3.org/2000/svg">
    <path
        d="M47.5625 35.5612H46V33.3945C46 23.2695 38.8125 14.8112 29.2708 12.832L29.6875 10.9987C29.6875 10.9987 29.6875 10.9362 29.6875 10.9154C30.7708 10.6654 31.625 9.72786 31.625 8.5612V6.51953H20.8333C19.4792 6.51953 18.375 7.6237 18.375 8.97786V11.0195H20.3125L20.7292 12.832C11.1875 14.7904 4 23.2695 4 33.3737V35.5404H2.4375C1.95833 35.5404 1.5625 35.9362 1.5625 36.457C1.5625 40.332 4.70833 43.4779 8.58333 43.4779H41.4375C45.3125 43.4779 48.4792 40.2904 48.4583 36.3737C48.4583 35.9154 48.0417 35.5404 47.5833 35.5404L47.5625 35.5612ZM41.4167 41.7279H8.58333C6 41.7279 3.8125 39.8529 3.39583 37.332H46.625C46.2083 39.8529 44.0208 41.7279 41.4375 41.7279H41.4167ZM25 14.1445C35.6042 14.1445 44.2292 22.7695 44.2292 33.3945V35.5612H5.75V33.3945C5.75 22.7904 14.375 14.1445 25 14.1445ZM27.5208 12.5404C26.6875 12.4362 25.8542 12.3737 25 12.3737C24.1458 12.3737 23.3125 12.4362 22.4792 12.5404L22.125 10.9987H27.875L27.5208 12.5404ZM19.5417 8.95703C19.5417 8.2487 20.125 7.6862 20.8125 7.6862H30.4375V8.5612C30.4375 9.26953 29.8542 9.83203 29.1667 9.83203H19.5417V8.95703Z"
        fill="#008CFF" />
    <path
        d="M25 17.9583C33.5 17.9583 40.4375 24.875 40.4375 33.3958C40.4375 33.875 40.8333 34.2708 41.3125 34.2708C41.7917 34.2708 42.1875 33.875 42.1875 33.375C42.1875 23.8958 34.4792 16.1875 25 16.1875C24.5208 16.1875 24.125 16.5833 24.125 17.0625C24.125 17.5417 24.5208 17.9375 25 17.9375V17.9583Z"
        fill="#008CFF" />
</svg>