<svg width="51" height="50" viewBox="0 0 51 50" fill="none" xmlns="http://www.w3.org/2000/svg">
<path d="M33.978 14.896C34.353 15.0001 34.7488 15.0418 35.1238 15.0418C35.8947 15.0418 36.6447 14.8335 37.3113 14.4585C38.3322 13.8751 39.0613 12.9168 39.353 11.7918C39.978 9.45848 38.5822 7.04181 36.2488 6.41681C35.1238 6.10431 33.9363 6.27098 32.9155 6.85431C31.8947 7.43764 31.1655 8.39598 30.8738 9.52098C30.5613 10.646 30.728 11.8335 31.3113 12.8543C31.8947 13.8751 32.853 14.6043 33.978 14.896ZM32.3322 9.89598C32.5197 9.16681 32.9988 8.54181 33.6655 8.14598C34.103 7.89598 34.603 7.77098 35.103 7.77098C35.353 7.77098 35.603 7.81264 35.853 7.87514C36.603 8.06264 37.2072 8.54181 37.603 9.20848C37.978 9.87515 38.0822 10.646 37.8947 11.396C37.7072 12.1251 37.228 12.7501 36.5613 13.146C35.8947 13.521 35.1238 13.6251 34.3738 13.4376C33.6238 13.2293 33.0197 12.771 32.6238 12.1043C32.2488 11.4376 32.1447 10.6668 32.3322 9.91681V9.89598Z" fill="#008CFF"/>
<path d="M47.7062 6.85431C47.352 6.25014 46.8103 5.83348 46.1437 5.66681C45.477 5.47931 44.7895 5.58348 44.1853 5.91681C43.8728 6.10431 43.602 6.31264 43.4145 6.60431C43.102 7.06264 42.977 7.50014 42.977 7.50014L38.352 24.7293H37.602L38.3937 21.7501C38.6853 20.6876 38.5395 19.5626 37.977 18.6043C37.4145 17.646 36.5395 16.9585 35.4562 16.6668C34.0812 16.2918 32.8312 16.8543 31.8103 17.4376L25.1853 21.271H18.7895C17.4145 21.271 16.3103 22.396 16.3103 23.7501C16.3103 24.9793 17.2062 26.0001 18.3937 26.2085C18.227 26.5418 18.1437 26.9168 18.1437 27.2918V29.3126L17.3728 30.6043H16.0603H10.727V28.9585C12.3312 28.4168 13.352 27.0001 13.2687 25.4585C13.2687 25.0626 13.2062 24.6668 13.0812 24.2918C12.977 23.9585 12.6437 23.7293 12.2687 23.7293H7.49784C7.12284 23.7293 6.78951 23.9585 6.68534 24.2918C6.56034 24.6668 6.49784 25.0626 6.49784 25.4585C6.41451 27.0001 7.43534 28.396 9.03951 28.9585V30.6043H4.81034C4.39367 30.6043 4.03951 30.8751 3.97701 31.2501L3.12284 35.8335C3.03951 36.2501 3.35201 36.646 3.81034 36.7085C3.85201 36.7085 3.89367 36.7085 3.95617 36.7085H5.70617L4.81034 42.7085C4.74784 43.1251 5.06034 43.521 5.53951 43.5626C5.99784 43.6251 6.43534 43.3335 6.49784 42.9168L7.41451 36.7085H8.12284L9.03951 42.9168C9.10201 43.3335 9.53951 43.6251 9.99784 43.5626C10.4562 43.5001 10.7687 43.1251 10.7062 42.7085L9.81034 36.7085H13.6853L11.6228 40.146C11.227 40.7918 11.1228 41.5626 11.3103 42.2918C11.4978 43.021 11.9562 43.646 12.602 44.0418C13.0395 44.3126 13.5395 44.4376 14.0603 44.4376C15.0603 44.4376 15.9978 43.9168 16.4978 43.0626L18.102 40.3751V41.8751C18.102 43.2918 19.2478 44.4585 20.6853 44.4585H34.977C36.9978 44.4585 38.7687 43.0835 39.2895 41.1251L42.2478 29.8751L47.8937 8.81264C48.0603 8.14598 47.977 7.45848 47.6437 6.85431H47.7062ZM18.1853 32.271V37.396L15.2687 42.271C15.0812 42.5626 14.8103 42.7918 14.4562 42.8751C14.1228 42.9585 13.7687 42.9168 13.4562 42.7293C13.1437 42.5418 12.9353 42.271 12.852 41.9168C12.7687 41.5835 12.8103 41.2293 12.9978 40.9168L18.1853 32.271ZM19.7062 27.2918C19.7062 26.7085 20.1853 26.2293 20.7687 26.2293H38.9562C39.3103 26.2293 39.602 26.0001 39.6853 25.6668L44.4562 7.85431C44.5187 7.58348 44.7062 7.35431 44.9353 7.20848C45.1853 7.06264 45.4562 7.02098 45.727 7.10431C45.9978 7.18764 46.227 7.35431 46.3728 7.58348C46.5187 7.83348 46.5603 8.10431 46.477 8.37514L40.8312 29.4376L38.0187 40.1043C37.5812 41.7293 36.1228 42.8543 34.4353 42.8543H20.727C20.1437 42.8543 19.6645 42.3751 19.6645 41.7918V27.2293L19.7062 27.2918ZM17.8728 23.7501C17.8728 23.2293 18.3103 22.7918 18.8312 22.7918H25.4353C25.5603 22.7918 25.7062 22.7501 25.8103 22.6876L32.6228 18.7501C33.4145 18.2918 34.2687 17.896 35.1228 18.1251C35.7895 18.3126 36.352 18.7293 36.7062 19.3543C37.0603 19.9585 37.1437 20.6668 36.977 21.3335L36.0812 24.7085H30.6645L31.0187 23.4168C31.102 23.1251 30.9978 22.8126 30.7478 22.6043C30.4978 22.4168 30.1645 22.396 29.8937 22.5418L26.1853 24.6876H18.8728C18.352 24.6876 17.9145 24.2501 17.9145 23.7293L17.8728 23.7501ZM7.91451 25.2501C7.91451 25.2501 7.91451 25.0835 7.91451 25.0001H12.0187C12.0187 25.0001 12.0187 25.1668 12.0187 25.2501C12.0187 26.7085 11.0812 27.9376 9.95617 27.9376C8.83117 27.9376 7.89367 26.7085 7.89367 25.2501H7.91451ZM4.99784 35.1876L5.56034 32.146H16.4978L14.6645 35.1876H4.99784Z" fill="#008CFF"/>
</svg>
