<svg width="51" height="50" viewBox="0 0 51 50" fill="none" xmlns="http://www.w3.org/2000/svg">
    <path
        d="M19.0052 17.125C18.6094 17.125 18.2969 17.4375 18.2969 17.8333V37.0833C18.2969 37.4792 18.6094 37.7917 19.0052 37.7917C19.401 37.7917 19.7135 37.4792 19.7135 37.0833V17.8333C19.7135 17.4375 19.401 17.125 19.0052 17.125Z"
        fill="#008CFF" />
    <path
        d="M25.5052 17.125C25.1094 17.125 24.7969 17.4375 24.7969 17.8333V37.0833C24.7969 37.4792 25.1094 37.7917 25.5052 37.7917C25.901 37.7917 26.2135 37.4792 26.2135 37.0833V17.8333C26.2135 17.4375 25.901 17.125 25.5052 17.125Z"
        fill="#008CFF" />
    <path
        d="M31.9857 37.7721C32.3815 37.7721 32.694 37.4596 32.694 37.0638V17.8138C32.694 17.418 32.3815 17.1055 31.9857 17.1055C31.5898 17.1055 31.2773 17.418 31.2773 17.8138V37.0638C31.2773 37.4596 31.5898 37.7721 31.9857 37.7721Z"
        fill="#008CFF" />
    <path
        d="M9.77865 22.2695C9.42448 22.2695 9.13281 22.5612 9.13281 22.9362V38.082C9.13281 38.4362 9.42448 38.7487 9.77865 38.7487C10.1328 38.7487 10.4245 38.457 10.4245 38.082V22.9362C10.4245 22.582 10.1328 22.2695 9.77865 22.2695Z"
        fill="#008CFF" />
    <path
        d="M40.6302 18.457H39.8802V15.9779C39.8802 15.207 39.2552 14.582 38.4844 14.582H36.5885C36.3177 13.2695 35.1719 12.2695 33.776 12.2695H30.4219V5.47786C30.4219 4.5612 29.6927 3.83203 28.776 3.83203H22.276C21.3802 3.83203 20.6302 4.5612 20.6302 5.47786V12.2695H19.5469C17.7552 12.2695 16.1719 13.1862 15.2552 14.582H12.3594C11.5885 14.582 10.9635 15.207 10.9635 15.9779V18.457H10.2135C7.92188 18.457 6.04688 20.332 6.04688 22.6237V40.1654C6.04688 41.2279 6.75521 42.082 7.71354 42.3945V43.7904C7.71354 44.6237 8.40104 45.3112 9.23437 45.3112H11.3594C12.1927 45.3112 12.8802 44.6237 12.8802 43.7904V42.5195H16.5052V44.332C16.5052 45.332 17.3177 46.1445 18.3177 46.1445H21.026C22.026 46.1445 22.8385 45.332 22.8385 44.332V42.6029H28.2552V44.5612C28.2552 45.4362 28.9635 46.1445 29.8385 46.1445H32.9844C33.8594 46.1445 34.5677 45.4362 34.5677 44.5612V42.5195H37.9844V43.7904C37.9844 44.6237 38.6719 45.3112 39.5052 45.3112H41.6302C42.4635 45.3112 43.151 44.6237 43.151 43.7904V42.3945C44.1094 42.082 44.8177 41.2279 44.8177 40.1654V22.6237C44.8177 20.332 42.9427 18.457 40.651 18.457H40.6302ZM22.0052 12.2695V5.47786C22.0052 5.35286 22.1094 5.22786 22.2552 5.22786H28.7552C28.8802 5.22786 29.0052 5.33203 29.0052 5.47786V12.2695H22.026H22.0052ZM8.98438 42.5404H11.5469V43.8112C11.5469 43.9362 11.4635 44.0195 11.3385 44.0195H9.21354C9.08854 44.0195 9.00521 43.9154 9.00521 43.8112V42.5404H8.98438ZM12.2135 41.2279H8.38021C7.79687 41.2279 7.31771 40.7487 7.31771 40.1654V22.6237C7.31771 21.0404 8.60938 19.7695 10.1719 19.7695H14.3385V39.7279C14.3385 40.2695 14.5052 40.7904 14.776 41.2279H12.1927H12.2135ZM14.3594 18.457H12.1094V15.9779C12.1094 15.8529 12.2135 15.7695 12.3177 15.7695H14.651C14.4635 16.2904 14.3594 16.8529 14.3594 17.4362V18.457ZM22.0885 41.207H17.2135C16.401 41.207 15.7552 40.5404 15.7552 39.7279V17.4362C15.7552 15.3529 17.4427 13.6654 19.526 13.6654H33.7552C34.5677 13.6654 35.2344 14.332 35.2344 15.1445V36.3529C35.2344 39.0195 33.0677 41.207 30.3802 41.207H22.0885ZM36.6302 19.7695H40.6302C42.2135 19.7695 43.4844 21.0612 43.4844 22.6237V40.1654C43.4844 40.7487 43.0052 41.2279 42.4219 41.2279H38.5885H34.2344C35.6719 40.082 36.6094 38.332 36.6094 36.3529V19.7695H36.6302ZM39.2552 42.5404H41.8177V43.8112C41.8177 43.9362 41.7135 44.0195 41.6094 44.0195H39.4844C39.3594 44.0195 39.276 43.9362 39.276 43.8112V42.5404H39.2552ZM38.4844 15.7695C38.6094 15.7695 38.6927 15.8529 38.6927 15.9779V18.457H36.6302V15.7695H38.4844ZM17.8802 42.6237H21.401V44.3529C21.401 44.582 21.2135 44.7487 21.0052 44.7487H18.2969C18.0677 44.7487 17.901 44.5612 17.901 44.3529V42.6237H17.8802ZM29.6302 42.6237H33.1302V44.582C33.1302 44.582 33.0469 44.7487 32.9635 44.7487H29.8177C29.8177 44.7487 29.651 44.6654 29.651 44.582V42.6237H29.6302Z"
        fill="#008CFF" />
    <path
        d="M41.0286 38.7292C41.3828 38.7292 41.6953 38.4375 41.6953 38.0625V22.9167C41.6953 22.5625 41.4036 22.25 41.0286 22.25C40.6536 22.25 40.3828 22.5417 40.3828 22.9167V38.0625C40.3828 38.4167 40.6745 38.7292 41.0286 38.7292Z"
        fill="#008CFF" />
</svg>