<svg width="51" height="50" viewBox="0 0 51 50" fill="none" xmlns="http://www.w3.org/2000/svg">
  <path d="M20.925 23.6659H41.3833V22.8743C41.3833 20.1243 39.1333 17.8743 36.3833 17.8743H19.0083L14.425 4.06178C13.7166 1.93678 11.3625 0.707614 9.17496 1.41595C7.0083 2.14511 5.8208 4.49928 6.52913 6.66595L16.8833 37.9368C16.8833 37.9368 16.925 38.041 16.9458 38.0826V42.1243H23.0708L20.8 47.2285C20.6541 47.5618 20.675 47.9576 20.8833 48.2701C21.0916 48.5826 21.425 48.7701 21.8 48.7701H37.175C38.2791 48.7701 39.2791 48.2285 39.8833 47.291C40.4875 46.3535 40.5708 45.2285 40.1333 44.2076L39.1958 42.1035H41.4875C43.5916 42.1035 45.3 40.3951 45.3 38.291V32.416H23.8416L20.925 23.6451V23.6659ZM39.7166 22.1034H18.2166C17.4875 22.1034 16.8833 21.4993 16.8833 20.7701C16.8833 20.0409 17.4875 19.4368 18.2166 19.4368H36.3625C37.9875 19.4368 39.3625 20.5826 39.7166 22.1034ZM8.0083 6.18678C7.54996 4.83261 8.29996 3.35345 9.65413 2.91595C11.0291 2.45761 12.5083 3.22845 12.9458 4.56178L17.4041 18.0409C16.2166 18.3951 15.3208 19.4993 15.3208 20.7909C15.3208 22.3951 16.6125 23.6868 18.2166 23.6868H19.2791L22.1958 32.4576H21.2791C19.6333 32.4576 18.2166 33.3951 17.4875 34.7493L8.0083 6.18678ZM38.6958 44.8743C38.925 45.3951 38.8833 45.9785 38.5708 46.4576C38.2583 46.9368 37.7375 47.2285 37.175 47.2285H22.5083L24.7583 42.1451H37.4666L38.675 44.8951L38.6958 44.8743ZM43.7166 38.3326C43.7166 39.5618 42.7166 40.5826 41.4666 40.5826H18.4875V37.8118V36.8118C18.4875 35.291 19.7375 34.041 21.2583 34.041H43.7166V38.3535V38.3326Z" fill="#008CFF" />
  <path d="M40.9245 36.957V36.5195H22.8828C22.2995 36.5195 21.8203 36.9987 21.8203 37.582V38.0195H39.862C40.4453 38.0195 40.9245 37.5404 40.9245 36.957Z" fill="#008CFF" />
</svg>