<svg width="51" height="50" viewBox="0 0 51 50" fill="none" xmlns="http://www.w3.org/2000/svg">
    <path
        d="M30.6159 2.27086C28.0742 2.52086 26.0742 4.87503 26.0742 7.6042V8.50003C26.0742 10.7917 26.1784 12.5209 26.3867 14.125C26.6367 16.0417 26.7826 18.0417 26.7826 20.0625V29.5834C26.7826 31.875 26.6784 33.6042 26.4701 35.2084C26.1992 37.2084 26.0742 39.25 26.0742 41.2709V42.375C26.0742 45.1042 28.0742 47.4584 30.6159 47.7084C30.8034 47.7084 30.9701 47.7292 31.1576 47.7292C32.4076 47.7292 33.5951 47.2709 34.5534 46.4167C35.6159 45.4584 36.2201 44.0834 36.2201 42.6459V41.4584C36.2201 39.9167 36.1784 37.8959 35.9076 35.8334C35.6576 33.8959 35.5117 31.8959 35.5117 29.8959V20.0417C35.5117 18.9167 35.5534 17.75 35.6576 16.5417C35.7201 15.8125 35.7826 15.1667 35.8451 14.5625C36.0951 12.4375 36.2201 10.5209 36.2201 8.6667V7.27086C36.2201 5.83336 35.6159 4.4792 34.5534 3.50003C33.4701 2.52086 32.0742 2.08336 30.6367 2.20836L30.6159 2.27086ZM27.7409 8.1667V7.52086C27.7409 5.75003 28.9492 4.2292 30.5742 3.95836C31.5742 3.7917 32.5951 4.06253 33.3451 4.7292C34.1159 5.37503 34.5534 6.33336 34.5534 7.33336V8.7292C34.5534 9.81253 34.5117 10.9375 34.4284 12.0417L27.7409 8.18753V8.1667ZM34.2617 13.8542C34.2617 13.8542 34.2617 13.9792 34.2617 14.0209C34.2617 14.1042 34.2617 14.1875 34.2409 14.2917C34.1992 14.5625 34.1784 14.8334 34.1576 15.1042L27.8659 11.4584C27.8451 11.0209 27.8242 10.5625 27.8034 10.0834L34.3034 13.8334L34.2617 13.8542ZM28.0742 14.25C28.0534 14 28.0117 13.75 27.9909 13.5L33.9492 16.9375C33.8867 18.0209 33.8451 19.0625 33.8451 20.0625V21.3334H28.4284V20.9792C28.4284 19.125 28.2826 16.0834 28.0534 14.2292L28.0742 14.25ZM28.8451 27.1459L28.4492 26.9375V22.9792H33.8659V26.9375L33.5117 27.125C32.0534 27.8542 30.3242 27.875 28.8659 27.125L28.8451 27.1459ZM27.7409 41.6042C27.7409 39.3125 27.8451 37.5834 28.0534 35.9792C28.3242 33.9792 28.4492 31.9375 28.4492 29.9167V28.7917C30.1576 29.5209 32.0742 29.5417 33.8659 28.7917V29.7084C33.8659 31.25 33.9076 33.2917 34.1784 35.3334C34.4284 37.25 34.5742 39.25 34.5742 41.2709V42.6667C34.5742 43.6667 34.1367 44.625 33.3659 45.2709C32.5951 45.9167 31.5742 46.2084 30.5951 46.0417C28.9701 45.7709 27.7617 44.25 27.7617 42.4792V41.625L27.7409 41.6042Z"
        fill="#008CFF" />
    <path
        d="M4.24219 5.72917V12.7708H6.51302V40.9167H6.05469C5.24219 40.9167 4.57552 41.5833 4.57552 42.3958V44.0625H6.51302V47.5625H8.24219V44.0625H8.70052C9.51302 44.0625 10.1797 43.3958 10.1797 42.5833V40.9167H8.24219V12.7083C9.51302 12.5417 10.513 11.4792 10.513 10.1667V3.125H6.86719C5.42969 3.125 4.26302 4.29167 4.26302 5.72917H4.24219ZM9.15885 10.1667C9.15885 10.875 8.59635 11.4375 7.88802 11.4375H5.57552V5.72917C5.57552 5.02083 6.13802 4.45833 6.84635 4.45833H9.15885V10.1667Z"
        fill="#008CFF" />
    <path
        d="M46.1563 10.1667V3.125H42.5104C41.0729 3.125 39.9062 4.29167 39.9062 5.72917V12.7708H42.1771V40.9167H41.7188C40.9063 40.9167 40.2396 41.5833 40.2396 42.3958V44.0625H42.1771V47.5625H43.9063V44.0625H44.3646C45.1771 44.0625 45.8438 43.3958 45.8438 42.5833V40.9167H43.9063V12.7083C45.1771 12.5417 46.1771 11.4792 46.1771 10.1667H46.1563ZM41.2396 5.72917C41.2396 5.02083 41.8021 4.45833 42.5104 4.45833H44.8229V10.1667C44.8229 10.875 44.2604 11.4375 43.5521 11.4375H41.2396V5.72917Z"
        fill="#008CFF" />
    <path
        d="M18.7214 2.27086C16.1797 2.52086 14.1797 4.87503 14.1797 7.6042V8.50003C14.1797 10.7917 14.2839 12.5209 14.4922 14.125C14.7422 16.0417 14.888 18.0417 14.888 20.0625V29.5834C14.888 31.875 14.7839 33.6042 14.5755 35.2084C14.3047 37.2084 14.1797 39.25 14.1797 41.2709V42.375C14.1797 45.1042 16.1797 47.4584 18.7214 47.7084C18.9089 47.7084 19.0755 47.7292 19.263 47.7292C20.513 47.7292 21.7005 47.2709 22.6589 46.4167C23.7214 45.4584 24.3255 44.0834 24.3255 42.6459V41.4584C24.3255 39.9167 24.2839 37.8959 24.013 35.8334C23.763 33.8959 23.6172 31.8959 23.6172 29.8959V20.0417C23.6172 18.9167 23.6589 17.75 23.763 16.5417C23.8255 15.8125 23.888 15.1667 23.9505 14.5625C24.2005 12.4584 24.3255 10.5209 24.3255 8.6667V7.27086C24.3255 5.83336 23.7214 4.4792 22.6589 3.50003C21.5755 2.52086 20.1797 2.08336 18.7422 2.20836L18.7214 2.27086ZM15.8464 8.1667V7.52086C15.8464 5.75003 17.0547 4.2292 18.6797 3.95836C19.6797 3.7917 20.7005 4.06253 21.4505 4.7292C22.2214 5.37503 22.6589 6.33336 22.6589 7.33336V8.7292C22.6589 9.81253 22.6172 10.9167 22.5339 12.0417L15.8464 8.18753V8.1667ZM16.1797 14.25C16.1589 14 16.1172 13.75 16.0964 13.5L22.0547 16.9375C21.9922 18.0209 21.9505 19.0625 21.9505 20.0625V21.3334H16.5339V20.9792C16.5339 19.125 16.388 16.1042 16.1797 14.2292V14.25ZM16.9505 27.1459L16.5547 26.9375V22.9792H21.9714V26.9375L21.6172 27.125C20.1589 27.8542 18.4297 27.875 16.9714 27.125L16.9505 27.1459ZM22.3464 14.0625C22.3464 14.0625 22.3464 14.2084 22.3255 14.2917C22.2839 14.5625 22.263 14.8334 22.2422 15.1042L15.9505 11.4792C15.9297 11.0417 15.9089 10.5834 15.888 10.1042L22.388 13.8542C22.388 13.8542 22.388 14 22.3672 14.0625H22.3464ZM15.8464 41.6042C15.8464 39.3125 15.9505 37.5834 16.1589 35.9792C16.4297 33.9792 16.5547 31.9375 16.5547 29.9167V28.7917C18.263 29.5209 20.1797 29.5417 21.9714 28.7917V29.7084C21.9714 31.25 22.013 33.2917 22.2839 35.3334C22.5339 37.25 22.6797 39.25 22.6797 41.2709V42.6667C22.6797 43.6667 22.2422 44.625 21.4714 45.2709C20.7005 45.9167 19.7005 46.2084 18.7005 46.0417C17.0755 45.7709 15.8672 44.25 15.8672 42.4792V41.625L15.8464 41.6042Z"
        fill="#008CFF" />
</svg>